<?xml version="1.0" standalone="no"?>
<!DOCTYPE svg PUBLIC "-//W3C//DTD SVG 20010904//EN"
 "http://www.w3.org/TR/2001/REC-SVG-20010904/DTD/svg10.dtd">
<svg version="1.0" xmlns="http://www.w3.org/2000/svg"
 width="1024.000000pt" height="1024.000000pt" viewBox="0 0 1024.000000 1024.000000"
 preserveAspectRatio="xMidYMid meet">

<g transform="translate(0.000000,1024.000000) scale(0.100000,-0.100000)"
fill="#000000" stroke="none">
<path d="M4865 8619 c-508 -39 -1024 -202 -1450 -459 -123 -74 -341 -227 -364
-254 -10 -12 25 -51 226 -247 131 -129 443 -436 693 -684 250 -247 561 -554
690 -680 422 -414 455 -447 440 -442 -8 3 -139 56 -290 117 -151 62 -350 143
-442 179 l-166 68 25 -71 c29 -80 693 -1852 800 -2132 l69 -181 122 236 c67
130 166 322 220 426 54 105 305 591 557 1080 252 490 460 892 462 895 2 2 80
-72 173 -165 94 -94 174 -169 178 -169 4 1 21 -10 37 -23 17 -14 23 -22 15
-18 -8 4 50 -58 130 -139 80 -80 147 -146 150 -146 2 0 -33 38 -80 85 -49 49
-78 85 -69 85 9 0 24 -11 34 -23 11 -16 26 -23 41 -21 13 1 22 -2 18 -7 -3 -5
0 -9 5 -9 6 0 11 5 11 12 0 6 9 1 19 -11 12 -13 22 -18 26 -11 3 5 12 10 18
10 7 0 6 -4 -3 -10 -11 -7 -10 -9 9 -7 l23 1 -21 17 c-21 17 -21 17 9 24 16 4
30 12 30 18 0 7 4 6 10 -3 7 -11 10 -11 10 -2 0 9 5 10 19 3 10 -6 20 -8 23
-6 3 3 5 -2 5 -10 0 -8 -4 -12 -8 -9 -4 2 -1 -9 7 -26 15 -29 47 -43 41 -17
-1 8 9 12 30 11 22 -1 30 3 26 12 -5 15 39 30 57 19 6 -3 9 -1 8 6 -2 7 6 15
17 17 11 2 25 11 32 19 6 8 16 12 22 9 5 -4 12 -2 15 3 3 5 0 11 -8 14 -21 8
-56 -4 -56 -19 0 -7 -6 -11 -14 -8 -8 3 -17 1 -21 -5 -3 -6 -21 -11 -38 -11
-21 0 -28 -3 -19 -9 11 -7 11 -9 -1 -14 -10 -4 -14 0 -13 11 2 9 17 20 34 24
36 10 40 23 15 50 -13 15 -14 18 -2 18 8 0 19 -4 25 -9 5 -5 27 -11 49 -13 22
-3 48 -8 58 -12 10 -5 17 -4 17 2 0 6 -8 13 -17 16 -10 3 6 4 35 2 28 -2 52 0
52 3 0 11 -15 28 -35 39 -19 11 -18 11 6 12 15 0 43 7 62 15 25 10 65 14 124
13 l88 -2 -90 -5 c-110 -7 -88 -18 48 -25 100 -5 150 -22 110 -37 -13 -6 -11
-7 12 -8 17 0 55 -2 85 -5 30 -2 62 0 72 5 10 6 19 5 23 -1 3 -5 -2 -10 -12
-11 -25 -1 -54 -7 -59 -12 -2 -2 14 -12 36 -22 22 -10 40 -23 40 -29 0 -6 5
-5 12 2 14 14 38 16 38 2 0 -5 -8 -7 -17 -4 -15 5 -16 4 -3 -5 8 -6 29 -11 45
-11 21 0 26 -3 16 -9 -11 -7 -11 -9 0 -14 12 -5 11 -8 -1 -17 -13 -9 -12 -10
5 -6 24 7 50 -8 41 -23 -4 -6 -3 -11 2 -11 6 0 13 8 17 18 7 16 8 15 15 -3 5
-14 3 -22 -8 -26 -12 -4 -11 -9 9 -28 24 -22 24 -22 27 -2 2 12 7 21 12 21 5
0 6 -8 3 -17 -5 -13 -2 -15 11 -10 15 6 17 3 13 -13 -3 -11 -1 -20 3 -20 5 0
11 8 13 18 3 10 5 6 6 -11 1 -31 21 -28 21 3 0 10 7 21 16 24 19 7 17 24 -31
216 -112 444 -311 868 -575 1226 -234 317 -524 596 -840 808 -615 414 -1369
612 -2115 555z m1765 -2294 c13 -14 21 -25 18 -25 -2 0 -15 11 -28 25 -13 14
-21 25 -18 25 2 0 15 -11 28 -25z m70 -70 c19 -19 32 -35 29 -35 -3 0 -20 16
-39 35 -19 19 -32 35 -29 35 3 0 20 -16 39 -35z m76 -77 l29 -33 -32 29 c-31
28 -38 36 -30 36 2 0 16 -15 33 -32z m1164 -79 c0 -5 -16 -9 -36 -9 -19 0 -33
3 -31 8 7 10 67 11 67 1z m-1044 -16 c-8 -9 54 -73 71 -73 7 0 13 -8 13 -17 0
-12 -15 -2 -50 32 -43 42 -54 65 -33 65 4 0 3 -3 -1 -7z m1131 -34 c-1 -10 -5
-19 -10 -19 -5 0 -5 9 -2 20 4 11 2 20 -4 20 -6 0 -11 5 -11 11 0 8 4 8 14 0
8 -7 14 -21 13 -32z m-53 16 c-4 -8 -10 -15 -16 -15 -5 0 -7 4 -4 9 4 5 0 12
-6 14 -7 3 -3 6 9 6 16 1 21 -3 17 -14z m-504 -5 c0 -5 -4 -10 -10 -10 -5 0
-10 5 -10 10 0 6 5 10 10 10 6 0 10 -4 10 -10z m86 -4 c15 4 24 2 24 -5 0 -16
-78 -11 -92 6 -9 11 -6 12 16 3 15 -5 38 -7 52 -4z m-166 -61 c0 -11 -6 -12
-24 -5 -15 5 -27 5 -35 -3 -6 -6 -11 -7 -11 -3 0 5 -7 3 -15 -4 -13 -11 -18
-11 -28 0 -9 10 -9 11 0 6 7 -4 24 0 37 9 14 9 30 14 35 11 5 -4 12 -2 16 4 8
13 25 3 25 -15z m771 0 c-41 -18 -42 -18 -35 -2 2 7 19 14 37 15 l32 2 -34
-15z m-1093 -33 c6 -18 -15 -14 -22 4 -4 10 -1 14 6 12 6 -2 14 -10 16 -16z
m1182 4 c0 -2 -11 -6 -25 -8 -13 -3 -22 -1 -19 3 5 9 44 13 44 5z m-933 -43
c-9 -9 -19 -14 -23 -11 -10 10 6 28 24 28 15 0 15 -1 -1 -17z m1091 0 c-1 -10
1 -24 5 -30 5 -7 4 -13 -2 -13 -5 0 -11 6 -14 13 -4 13 3 47 10 47 2 0 3 -8 1
-17z m12 -93 c0 -5 -2 -10 -4 -10 -3 0 -8 5 -11 10 -3 6 -1 10 4 10 6 0 11 -4
11 -10z"/>
<path d="M2792 7674 c-289 -291 -486 -562 -661 -913 -84 -167 -185 -417 -177
-437 3 -8 2 -13 -3 -10 -9 6 -16 -15 -66 -189 -41 -140 -43 -153 -17 -134 14
11 15 11 5 -1 -16 -17 -17 -40 -2 -40 5 0 7 5 3 12 -5 7 -3 8 6 3 8 -5 18 -1
27 10 7 11 13 13 13 7 0 -7 0 -15 0 -19 0 -4 -7 -8 -16 -9 -19 -3 -44 -24 -28
-24 6 0 14 3 18 7 3 4 23 8 44 10 60 6 61 6 56 15 -5 8 17 12 44 9 6 -1 12 3
12 9 0 5 -4 10 -9 10 -5 0 -7 9 -4 20 6 21 12 24 37 14 9 -3 13 -10 10 -15 -3
-5 -10 -6 -16 -3 -7 4 -8 2 -4 -5 6 -9 11 -9 21 -1 8 7 19 9 24 5 7 -3 8 0 5
9 -6 16 14 21 56 17 13 -2 13 -1 0 8 -12 9 -11 11 8 11 15 0 21 -4 16 -12 -4
-6 3 -4 16 5 19 13 41 16 109 12 l86 -4 -75 9 c-41 6 -82 12 -90 14 -26 7 269
12 325 6 6 -1 -1 -6 -14 -11 -13 -5 -33 -7 -45 -3 -18 5 -18 4 4 -13 35 -25
179 -95 155 -74 -22 18 -30 41 -16 41 6 0 17 -10 25 -21 8 -12 27 -30 41 -39
26 -17 19 -40 -7 -24 -7 4 -8 3 -4 -5 4 -6 16 -9 25 -6 24 7 69 -9 53 -19 -21
-13 5 -46 36 -45 15 0 21 3 14 6 -6 2 -10 9 -6 14 3 5 1 9 -5 9 -6 0 -7 8 -4
17 6 15 7 15 13 -2 7 -19 40 -30 40 -13 0 5 -13 23 -30 40 -51 51 -33 49 21
-3 28 -27 48 -53 44 -59 -3 -6 3 -10 15 -10 15 0 25 -10 33 -30 6 -16 17 -30
24 -30 9 0 10 -7 3 -26 -13 -34 -13 -44 4 -44 10 0 12 7 8 23 -5 19 -3 20 10
9 20 -16 12 -53 -10 -45 -10 4 -13 2 -8 -6 4 -6 15 -9 25 -6 13 4 23 -7 40
-41 12 -26 18 -50 14 -53 -5 -3 -8 -12 -7 -18 1 -7 2 -17 3 -23 0 -5 6 -10 11
-10 6 0 8 10 4 24 -3 13 -1 27 4 30 9 5 19 -18 22 -49 1 -5 7 -19 15 -31 7
-11 14 -45 15 -75 2 -74 1 -77 -15 -55 -13 17 -15 17 -21 3 -3 -10 -3 -29 1
-45 7 -28 8 -189 1 -232 -2 -14 -7 -51 -11 -82 -3 -32 -11 -58 -16 -58 -5 0
-9 -5 -9 -11 0 -5 5 -7 11 -3 7 4 10 1 7 -7 -3 -8 -13 -13 -21 -13 -13 1 -15
-4 -11 -21 3 -13 1 -26 -4 -29 -11 -7 -25 21 -17 34 3 5 1 12 -5 15 -6 4 -9 3
-8 -2 1 -4 -3 -17 -9 -29 -12 -21 -12 -36 2 -67 11 -26 -3 -34 -20 -11 -9 10
-15 15 -14 9 3 -26 -2 -46 -11 -40 -6 3 -10 -5 -10 -19 0 -13 6 -26 13 -29 14
-5 -14 -32 -50 -47 -31 -13 -49 -48 -28 -56 8 -3 12 -11 9 -16 -4 -6 -10 -5
-14 3 -6 9 -18 3 -45 -24 -20 -20 -41 -35 -47 -34 -6 1 -11 -7 -13 -19 -1 -16
3 -20 19 -17 12 2 8 -2 -9 -8 -16 -6 -37 -17 -45 -24 -8 -7 -25 -15 -37 -17
-19 -5 -21 -3 -13 17 8 21 8 22 -25 7 -19 -9 -31 -20 -28 -25 3 -6 1 -7 -5 -3
-13 8 -57 -32 -47 -42 3 -4 10 0 15 8 6 8 10 12 10 7 0 -4 14 -1 30 8 17 9 30
11 30 5 0 -5 -11 -12 -25 -16 -14 -3 -25 -10 -25 -14 0 -4 -11 -11 -25 -14
-13 -3 -41 -17 -61 -31 -41 -28 -50 -30 -59 -14 -5 7 -13 5 -25 -6 -14 -12
-20 -13 -26 -4 -4 7 -3 10 3 6 6 -4 16 0 23 9 9 10 22 13 44 8 17 -3 28 -3 24
1 -4 5 -3 14 3 21 9 11 5 11 -20 4 -17 -5 -34 -9 -36 -9 -3 -1 -7 -2 -10 -2
-3 -1 -9 -3 -15 -4 -5 -1 -31 -3 -56 -4 -27 -1 -43 -5 -39 -11 4 -6 -10 -10
-35 -10 -23 0 -39 4 -36 9 7 11 -61 22 -94 16 -20 -4 -21 -4 -6 3 18 8 18 9 2
15 -25 10 -64 9 -68 -2 -1 -4 -12 -5 -23 -1 -16 6 -11 9 22 14 24 4 45 12 48
17 4 5 -2 6 -11 2 -10 -4 -15 -2 -11 4 3 5 0 10 -8 10 -8 0 -11 -5 -8 -11 4
-6 -3 -3 -15 8 -13 11 -30 16 -42 13 -13 -3 -23 0 -26 8 -3 7 -14 11 -25 8
-13 -4 -19 0 -19 11 0 10 -7 17 -17 15 -32 -3 -44 1 -38 12 5 7 -3 9 -21 7
-21 -2 -30 -9 -32 -26 -2 -12 -7 -20 -12 -17 -4 3 -4 21 0 40 5 22 4 37 -3 42
-6 4 -7 1 -2 -7 5 -9 4 -11 -3 -6 -7 4 -12 16 -12 27 0 11 -7 22 -15 25 -8 4
-15 12 -15 20 0 8 -4 14 -10 14 -5 0 -7 -12 -4 -27 18 -102 21 -123 14 -123
-9 0 -26 108 -45 280 -7 63 -13 96 -14 73 -2 -95 42 -373 90 -568 92 -373 255
-740 471 -1065 135 -204 247 -340 433 -525 183 -184 321 -298 520 -430 825
-548 1806 -703 2756 -434 807 228 1528 782 1971 1514 93 153 170 305 164 321
-3 8 -2 13 3 10 12 -8 55 90 46 105 -5 7 -4 10 2 6 14 -9 34 47 27 71 -4 12
-3 14 4 4 11 -16 57 102 46 120 -4 6 -3 8 3 5 13 -8 27 39 17 55 -4 6 -3 8 4
4 7 -4 20 24 36 76 46 154 88 335 51 223 -8 -22 -14 -31 -14 -20 0 11 6 40 13
65 11 35 15 39 16 20 2 -22 3 -20 12 10 6 23 6 40 0 51 -6 9 -7 22 -2 29 6 10
9 8 12 -6 2 -10 12 32 22 94 14 89 15 120 6 141 -6 15 -9 40 -6 54 3 16 1 25
-5 22 -5 -4 -9 -15 -9 -25 0 -10 -5 -22 -10 -25 -8 -5 -7 -12 2 -23 12 -15 11
-16 -4 -3 -10 7 -18 21 -19 30 0 10 -4 7 -11 -9 -15 -34 -16 -43 -5 -58 11
-13 -16 -41 -40 -42 -7 0 -13 -5 -13 -12 0 -6 -8 -20 -17 -31 -10 -11 -12 -17
-6 -13 9 5 11 2 7 -8 -3 -9 -11 -14 -17 -13 -7 1 -10 -10 -9 -30 2 -17 -1 -34
-6 -37 -13 -8 -35 20 -27 34 3 5 -1 10 -9 10 -19 0 -22 -36 -3 -44 8 -3 6 -9
-7 -20 -21 -17 -41 -21 -32 -7 3 5 -1 14 -9 21 -14 11 -14 10 -5 -14 12 -34
12 -36 0 -36 -12 0 -56 -42 -53 -51 3 -10 -31 -7 -44 4 -9 6 -13 6 -13 -2 0
-7 -4 -9 -10 -6 -5 3 -10 2 -10 -4 0 -5 -13 -12 -29 -16 -31 -7 -44 -25 -35
-50 4 -9 0 -15 -10 -15 -12 0 -14 5 -6 25 9 23 8 24 -10 13 -11 -7 -20 -16
-20 -19 0 -11 -59 -29 -74 -23 -8 3 -16 2 -19 -3 -3 -4 -29 -6 -59 -4 l-53 4
45 13 c54 16 53 16 45 5 -3 -5 0 -13 6 -17 8 -4 9 -3 5 4 -5 8 1 12 18 12 32
0 38 10 20 35 -8 10 -14 14 -14 9 0 -6 6 -16 13 -23 10 -11 3 -12 -38 -5 -75
11 -288 5 -297 -9 -6 -9 -8 -8 -8 2 0 8 -7 11 -20 8 -10 -3 -20 -1 -22 4 -2 5
-16 10 -33 11 -16 1 -36 8 -43 15 -8 7 -18 11 -22 8 -5 -3 -15 3 -22 15 -7 11
-16 20 -20 20 -7 0 -3 -32 7 -53 4 -6 -1 -3 -9 7 -9 11 -16 30 -16 43 0 19 5
23 31 23 20 0 28 -4 23 -12 -4 -7 -3 -8 5 -4 14 9 5 26 -14 26 -7 0 -16 6 -18
13 -4 10 -6 10 -6 0 -1 -8 -15 -13 -37 -13 -21 0 -33 4 -29 10 4 6 11 8 16 5
5 -4 9 -1 9 4 0 6 -6 12 -12 13 -7 0 -17 2 -23 3 -5 2 -16 3 -23 4 -7 0 -10 6
-6 12 5 8 1 8 -14 0 -17 -9 -19 -8 -15 9 3 12 0 20 -6 20 -7 0 -9 5 -6 11 4 6
-2 5 -13 -2 -16 -10 -23 -10 -36 4 -17 17 -22 47 -7 47 5 0 14 -7 21 -15 13
-15 30 -12 30 7 0 5 -8 7 -17 4 -10 -4 -14 -4 -10 0 4 4 2 13 -4 21 -13 15
-33 18 -24 3 3 -6 -1 -10 -9 -10 -9 0 -16 3 -15 8 2 14 -14 52 -22 52 -5 0 -6
7 -3 15 4 8 2 15 -3 15 -18 0 -23 -13 -11 -27 6 -7 8 -16 5 -20 -8 -8 22 -65
31 -59 4 2 8 -4 8 -15 0 -24 0 -24 -28 4 -13 12 -22 30 -20 40 2 10 -2 17 -12
17 -22 0 -29 19 -14 38 12 15 11 16 -4 3 -22 -17 -48 0 -48 31 0 10 -4 17 -9
13 -22 -13 -36 109 -14 127 7 6 13 16 13 22 0 6 -5 3 -11 -6 -14 -24 -23 -23
-54 7 -30 30 -31 37 -7 28 16 -6 15 -5 -1 15 -11 11 -16 26 -12 31 3 6 0 11
-7 11 -10 0 -13 13 -12 43 1 23 6 41 12 40 5 -1 12 7 15 17 3 11 1 20 -4 20
-5 0 -9 -6 -10 -12 0 -7 -5 -3 -11 10 -6 12 -15 22 -20 22 -5 0 -5 8 0 18 5 9
7 23 5 30 -3 6 1 12 7 12 9 0 9 5 -1 17 -12 15 -12 16 1 8 12 -7 13 -6 5 6 -6
8 -10 30 -9 49 1 19 2 56 3 82 0 28 7 53 17 63 9 9 14 19 10 22 -10 10 -30
-15 -43 -55 -12 -37 -12 -37 -9 21 2 31 -1 60 -6 63 -5 3 0 15 11 26 12 10 26
16 31 13 6 -3 10 -4 10 -1 0 3 -17 14 -37 25 -49 26 -28 27 32 1 52 -22 87
-27 40 -6 -16 8 -39 17 -50 21 -16 5 -17 8 -5 16 11 7 7 8 -12 3 -22 -5 -28
-3 -28 11 0 11 -5 15 -15 11 -8 -3 -15 -2 -15 3 0 11 -100 52 -111 45 -5 -3
-9 -1 -9 4 0 10 -56 36 -125 57 l-41 13 -43 -113 c-24 -63 -40 -119 -35 -126
4 -7 3 -10 -3 -6 -11 7 2 41 -323 -803 -133 -344 -331 -854 -440 -1135 -109
-280 -285 -735 -390 -1010 -106 -275 -196 -503 -200 -508 -3 -4 -80 196 -169
445 -158 439 -390 1070 -706 1923 -177 477 -422 1144 -570 1550 -90 248 -258
707 -373 1020 -115 314 -238 649 -272 745 -34 96 -63 177 -65 179 -3 2 -80
-72 -173 -165z m-335 -1545 c39 -2 70 -6 67 -11 -2 -4 -30 -5 -60 -3 -48 4
-55 2 -50 -11 5 -12 2 -15 -10 -10 -8 3 -32 7 -52 8 -37 1 -37 1 8 9 45 7 45
7 -13 6 -31 -1 -57 1 -57 5 0 10 17 13 58 11 20 -1 69 -3 109 -4z m-244 -16
c-7 -2 -21 -2 -30 0 -10 3 -4 5 12 5 17 0 24 -2 18 -5z m5 -20 c-10 -2 -26 -2
-35 0 -10 3 -2 5 17 5 19 0 27 -2 18 -5z m305 0 c-7 -2 -19 -2 -25 0 -7 3 -2
5 12 5 14 0 19 -2 13 -5z m-349 -9 c25 -4 46 -10 46 -15 0 -13 -73 -15 -99 -2
-17 8 -29 9 -37 2 -7 -6 -23 -9 -36 -6 -21 4 -20 4 4 6 15 0 30 6 33 11 7 12
25 12 89 4z m-291 -44 c3 -11 1 -23 -4 -26 -5 -3 -9 6 -9 20 0 31 6 34 13 6z
m812 10 c3 -5 1 -10 -4 -10 -6 0 -11 5 -11 10 0 6 2 10 4 10 3 0 8 -4 11 -10z
m-60 -10 c3 -6 -1 -7 -10 -4 -11 5 -14 2 -9 -10 3 -9 2 -16 -4 -16 -8 0 -9 16
-3 38 2 6 21 1 26 -8z m141 -25 c17 -16 14 -18 -10 -9 -9 3 -16 10 -16 15 0
13 9 11 26 -6z m-758 -30 c3 -3 -14 -5 -37 -5 -23 0 -40 4 -37 9 6 8 65 5 74
-4z m4872 -500 c0 -2 -6 -8 -13 -14 -10 -8 -14 -7 -14 2 0 8 6 14 14 14 7 0
13 -1 13 -2z m-3760 -120 c0 -8 -4 -15 -10 -15 -5 0 -7 7 -4 15 4 8 8 15 10
15 2 0 4 -7 4 -15z m-113 -460 c0 -8 -4 -15 -9 -15 -10 0 -11 14 -1 23 9 10
10 9 10 -8z m-17 -105 c0 -5 -2 -10 -4 -10 -3 0 -8 5 -11 10 -3 6 -1 10 4 10
6 0 11 -4 11 -10z m5449 -194 c-9 -8 -10 -7 -5 7 3 10 7 28 7 40 2 16 3 14 6
-7 3 -16 -1 -34 -8 -40z m-6609 -9 c0 -5 -4 -5 -10 -2 -5 3 -10 14 -10 23 0
15 2 15 10 2 5 -8 10 -19 10 -23z m6607 -29 c-3 -8 -6 -5 -6 6 -1 11 2 17 5
13 3 -3 4 -12 1 -19z m-106 -21 c-10 -9 -11 -8 -5 6 3 10 9 15 12 12 3 -3 0
-11 -7 -18z m-1178 -17 c3 -11 1 -18 -4 -14 -5 3 -9 12 -9 20 0 20 7 17 13 -6z
m-5253 -50 c0 -5 -4 -10 -10 -10 -5 0 -10 5 -10 10 0 6 5 10 10 10 6 0 10 -4
10 -10z m5393 -7 c-3 -7 -9 -13 -13 -13 -4 0 -12 6 -18 13 -9 10 -6 13 12 13
16 0 22 -5 19 -13z m-5466 -25 c-3 -7 -5 -2 -5 12 0 14 2 19 5 13 2 -7 2 -19
0 -25z m313 -18 c0 -5 -8 -10 -17 -10 -15 0 -16 2 -3 10 19 12 20 12 20 0z
m44 -28 c3 -5 -1 -9 -9 -9 -8 0 -12 4 -9 9 3 4 7 8 9 8 2 0 6 -4 9 -8z m5926
-12 c0 -5 -4 -10 -10 -10 -5 0 -10 5 -10 10 0 6 5 10 10 10 6 0 10 -4 10 -10z
m-6263 -22 c-3 -8 -6 -5 -6 6 -1 11 2 17 5 13 3 -3 4 -12 1 -19z m300 16 c-3
-3 -12 -4 -19 -1 -8 3 -5 6 6 6 11 1 17 -2 13 -5z m247 -5 c-3 -5 0 -9 7 -9 7
0 10 -3 7 -6 -4 -3 -16 0 -28 6 -12 6 -29 8 -38 4 -9 -4 -20 -6 -25 -6 -4 1
-26 3 -48 4 -22 1 -42 5 -45 10 -3 5 34 8 85 7 50 -1 88 -6 85 -10z m5659 -9
c-3 -11 -13 -20 -22 -19 -10 0 -11 2 -3 6 6 2 12 11 12 19 0 8 4 14 9 14 5 0
7 -9 4 -20z m-446 -26 c-3 -3 -12 -4 -19 -1 -8 3 -5 6 6 6 11 1 17 -2 13 -5z
m70 -20 c-3 -3 -12 -4 -19 -1 -8 3 -5 6 6 6 11 1 17 -2 13 -5z m-37 -38 c0
-11 -19 -15 -25 -6 -3 5 1 10 9 10 9 0 16 -2 16 -4z m58 -13 c-10 -2 -26 -2
-35 0 -10 3 -2 5 17 5 19 0 27 -2 18 -5z m115 0 c-7 -2 -21 -2 -30 0 -10 3 -4
5 12 5 17 0 24 -2 18 -5z"/>
<path d="M7627 6073 c-3 -5 35 -10 86 -12 51 -1 90 0 87 2 -10 9 -168 18 -173
10z"/>
<path d="M7630 6046 c0 -2 9 -6 20 -9 11 -3 20 -1 20 4 0 5 -9 9 -20 9 -11 0
-20 -2 -20 -4z"/>
<path d="M2423 6033 c9 -2 23 -2 30 0 6 3 -1 5 -18 5 -16 0 -22 -2 -12 -5z"/>
<path d="M7688 6033 c6 -2 18 -2 25 0 6 3 1 5 -13 5 -14 0 -19 -2 -12 -5z"/>
<path d="M7410 6026 c0 -2 8 -10 18 -17 15 -13 16 -12 3 4 -13 16 -21 21 -21
13z"/>
<path d="M1836 5937 c-7 -39 2 -76 14 -57 8 13 5 78 -3 86 -3 3 -7 -10 -11
-29z"/>
<path d="M7060 5921 c0 -10 19 -25 25 -20 1 2 -3 10 -11 17 -8 7 -14 8 -14 3z"/>
<path d="M7240 5916 c0 -2 7 -7 16 -10 8 -3 12 -2 9 4 -6 10 -25 14 -25 6z"/>
<path d="M1816 5841 c-4 -24 -5 -46 -2 -48 7 -7 19 63 14 79 -3 7 -8 -7 -12
-31z"/>
<path d="M2858 5863 c6 -2 18 -2 25 0 6 3 1 5 -13 5 -14 0 -19 -2 -12 -5z"/>
<path d="M2827 5843 c-4 -3 -7 -11 -7 -17 0 -6 5 -5 12 2 6 6 9 14 7 17 -3 3
-9 2 -12 -2z"/>
<path d="M2930 5838 c0 -9 -6 -19 -12 -21 -7 -3 -3 -6 10 -6 24 -1 27 6 12 29
-8 13 -10 13 -10 -2z"/>
<path d="M2882 5831 c-11 -7 -11 -9 1 -14 9 -3 18 1 21 9 6 16 -2 18 -22 5z"/>
<path d="M2856 5802 c-3 -5 1 -15 8 -21 11 -10 14 -9 12 3 -3 21 -13 29 -20
18z"/>
<path d="M8427 5804 c-3 -3 -3 -12 0 -20 3 -8 0 -21 -7 -29 -12 -14 -6 -35 10
-35 5 0 7 7 4 15 -4 8 -2 15 4 15 14 0 20 -55 9 -76 -7 -12 -6 -15 2 -10 15
10 14 -17 -1 -33 -11 -10 -10 -11 5 -6 14 6 17 1 18 -31 0 -22 3 -33 6 -25 7
17 -28 241 -37 241 -4 0 -9 -3 -13 -6z"/>
<path d="M7160 5786 c0 -2 8 -10 18 -17 15 -13 16 -12 3 4 -13 16 -21 21 -21
13z"/>
<path d="M1802 5755 c0 -16 2 -22 5 -12 2 9 2 23 0 30 -3 6 -5 -1 -5 -18z"/>
<path d="M2915 5770 c-3 -5 -1 -10 4 -10 6 0 11 5 11 10 0 6 -2 10 -4 10 -3 0
-8 -4 -11 -10z"/>
<path d="M2900 5725 c-11 -13 -10 -14 4 -9 9 3 16 10 16 15 0 13 -6 11 -20 -6z"/>
<path d="M1792 5700 c0 -14 2 -19 5 -12 2 6 2 18 0 25 -3 6 -5 1 -5 -13z"/>
<path d="M3000 5672 c0 -15 4 -20 16 -15 9 3 12 9 7 12 -4 3 -11 10 -15 15 -5
5 -8 0 -8 -12z"/>
<path d="M1782 5630 c0 -14 2 -19 5 -12 2 6 2 18 0 25 -3 6 -5 1 -5 -13z"/>
<path d="M3031 5614 c0 -11 3 -14 6 -6 3 7 2 16 -1 19 -3 4 -6 -2 -5 -13z"/>
<path d="M1773 5555 c0 -22 2 -30 4 -17 2 12 2 30 0 40 -3 9 -5 -1 -4 -23z"/>
<path d="M8478 5543 c-2 -5 -1 -24 3 -43 l6 -35 2 43 c1 39 -3 52 -11 35z"/>
<path d="M3081 5524 c0 -11 3 -14 6 -6 3 7 2 16 -1 19 -3 4 -6 -2 -5 -13z"/>
<path d="M1763 5460 c0 -25 2 -35 4 -22 2 12 2 32 0 45 -2 12 -4 2 -4 -23z"/>
<path d="M7005 5470 c3 -5 11 -10 16 -10 6 0 7 5 4 10 -3 6 -11 10 -16 10 -6
0 -7 -4 -4 -10z"/>
<path d="M7041 5462 c-7 -14 -6 -18 9 -18 15 0 17 3 7 15 -10 12 -8 13 13 7
19 -6 21 -5 10 3 -21 15 -28 14 -39 -7z"/>
<path d="M6913 5435 c-8 -9 -9 -16 -3 -20 6 -3 13 1 16 10 9 21 2 26 -13 10z"/>
<path d="M8493 5405 c0 -27 2 -38 4 -22 2 15 2 37 0 50 -2 12 -4 0 -4 -28z"/>
<path d="M1754 5295 c0 -49 1 -71 3 -48 2 23 2 64 0 90 -2 26 -3 8 -3 -42z"/>
<path d="M6954 5309 c-3 -6 -1 -16 5 -22 8 -8 11 -5 11 11 0 24 -5 28 -16 11z"/>
<path d="M7670 5285 c19 -19 36 -35 39 -35 3 0 -10 16 -29 35 -19 19 -36 35
-39 35 -3 0 10 -16 29 -35z"/>
<path d="M8504 5165 c0 -88 2 -123 3 -77 2 46 2 118 0 160 -1 42 -3 5 -3 -83z"/>
<path d="M6948 5220 c-1 -28 0 -59 3 -68 3 -9 7 13 8 51 1 78 -5 90 -11 17z"/>
<path d="M6910 5116 c0 -8 5 -18 10 -21 6 -3 10 3 10 14 0 12 -4 21 -10 21 -5
0 -10 -6 -10 -14z"/>
<path d="M6980 5115 c0 -8 -4 -15 -10 -15 -5 0 -10 -8 -9 -17 0 -11 3 -13 6
-5 2 6 9 10 14 6 5 -3 9 6 9 20 0 14 -2 26 -5 26 -3 0 -5 -7 -5 -15z"/>
<path d="M3057 5113 c-4 -3 -7 -13 -7 -22 1 -13 3 -13 11 2 11 19 8 33 -4 20z"/>
<path d="M1754 5010 c0 -52 1 -74 3 -47 2 26 2 68 0 95 -2 26 -3 4 -3 -48z"/>
<path d="M3050 5051 c0 -6 4 -13 10 -16 6 -3 7 1 4 9 -7 18 -14 21 -14 7z"/>
<path d="M6927 4996 c-4 -10 -1 -13 8 -9 8 3 12 9 9 14 -7 12 -11 11 -17 -5z"/>
<path d="M6956 4969 c-8 -42 0 -50 9 -9 4 17 5 34 2 36 -2 3 -7 -10 -11 -27z"/>
<path d="M8493 4905 c0 -27 2 -38 4 -22 2 15 2 37 0 50 -2 12 -4 0 -4 -28z"/>
<path d="M8483 4800 c0 -30 2 -43 4 -27 2 15 2 39 0 55 -2 15 -4 2 -4 -28z"/>
<path d="M7021 4824 c0 -11 3 -14 6 -6 3 7 2 16 -1 19 -3 4 -6 -2 -5 -13z"/>
<path d="M7020 4780 c0 -5 5 -10 11 -10 5 0 7 5 4 10 -3 6 -8 10 -11 10 -2 0
-4 -4 -4 -10z"/>
<path d="M2931 4754 c0 -11 3 -14 6 -6 3 7 2 16 -1 19 -3 4 -6 -2 -5 -13z"/>
<path d="M7032 4738 c7 -15 15 -23 17 -17 2 6 -4 18 -13 27 -15 15 -15 15 -4
-10z"/>
<path d="M7085 4721 c-3 -5 -2 -12 3 -15 5 -3 9 1 9 9 0 17 -3 19 -12 6z"/>
<path d="M7150 4676 c0 -2 8 -10 18 -17 15 -13 16 -12 3 4 -13 16 -21 21 -21
13z"/>
<path d="M1895 4580 c3 -5 8 -10 11 -10 2 0 4 5 4 10 0 6 -5 10 -11 10 -5 0
-7 -4 -4 -10z"/>
<path d="M1960 4586 c0 -2 7 -7 16 -10 8 -3 12 -2 9 4 -6 10 -25 14 -25 6z"/>
<path d="M2720 4540 c-9 -6 -10 -10 -3 -10 6 0 15 5 18 10 8 12 4 12 -15 0z"/>
<path d="M2565 4500 c-3 -6 1 -7 9 -4 18 7 21 14 7 14 -6 0 -13 -4 -16 -10z"/>
<path d="M8176 4495 c4 -8 10 -15 15 -15 4 0 6 7 3 15 -4 8 -10 15 -15 15 -4
0 -6 -7 -3 -15z"/>
<path d="M8120 4475 c0 -8 2 -15 4 -15 2 0 11 -3 19 -6 12 -4 14 0 10 15 -6
24 -33 29 -33 6z"/>
<path d="M2178 4473 c7 -3 16 -2 19 1 4 3 -2 6 -13 5 -11 0 -14 -3 -6 -6z"/>
<path d="M2454 4465 c-10 -8 -14 -14 -9 -15 15 0 40 18 34 24 -3 3 -14 -1 -25
-9z"/>
<path d="M2227 4463 c-4 -3 -7 -11 -7 -17 0 -6 5 -5 12 2 6 6 9 14 7 17 -3 3
-9 2 -12 -2z"/>
<path d="M2260 4455 c10 -9 24 -12 40 -8 22 6 22 7 4 14 -10 4 -28 8 -39 8
-17 1 -18 -1 -5 -14z"/>
<path d="M8058 4463 c-10 -2 -18 -8 -18 -12 0 -12 50 -8 51 4 1 11 -10 14 -33
8z"/>
<path d="M7998 4440 c-15 -4 -30 -5 -34 -1 -4 3 -4 0 0 -7 4 -7 12 -10 17 -6
5 3 16 0 24 -6 8 -7 15 -11 16 -9 5 24 7 39 6 38 -1 0 -14 -4 -29 -9z"/>
<path d="M7445 4430 c-16 -7 -17 -9 -3 -9 9 -1 20 4 23 9 7 11 7 11 -20 0z"/>
<path d="M7919 4421 c11 -7 10 -10 -5 -14 -10 -2 -3 -5 16 -5 19 0 29 2 22 5
-6 2 -10 9 -6 14 3 5 -5 9 -18 9 -17 0 -19 -3 -9 -9z"/>
<path d="M7670 4396 c6 -6 18 -5 32 1 21 10 21 10 -9 9 -19 -1 -28 -5 -23 -10z"/>
<path d="M7828 4402 c13 -4 23 -11 22 -17 -1 -5 7 -11 17 -13 15 -3 16 -1 3 7
-8 6 -10 11 -5 11 6 0 3 5 -5 10 -8 5 -24 9 -35 9 -17 -1 -17 -2 3 -7z"/>
<path d="M7970 4399 c0 -5 5 -7 10 -4 6 3 10 8 10 11 0 2 -4 4 -10 4 -5 0 -10
-5 -10 -11z"/>
<path d="M7588 4383 c7 -3 16 -2 19 1 4 3 -2 6 -13 5 -11 0 -14 -3 -6 -6z"/>
</g>
</svg>
